Love for All and Sharing is the first step to solving all the problems of humanity.

Websites I want to share.

 
http://www.shareintl.org/

 
http://www.lightmiddleway.com


Thank you very much

No credit for me...credit to EVERYONE for sharing

 
http://thepiratebay.org/user/raymondhome/

STORY
A hit comedy about losing

A college student is determined to become a Major League Baseball star, but finds his true calling instead.

IMDb RATING: 8.9/10 (26 votes)

Duration                         : 1h 33mn
Overall bit rate                 : 1 055 Kbps

Video
ID                               : 0
Format                           : MPEG-4 Visual
Format profile                   : Advanced Simple@L5
Format settings, BVOP            : Yes
Format settings, QPel            : No
Format settings, GMC             : No warppoints
Format settings, Matrix          : Default (H.263)
Codec ID                         : XVID
Codec ID/Hint                    : XviD
Duration                         : 1h 33mn
Bit rate                         : 882 Kbps
Width                            : 592 pixels
Height                           : 320 pixels
Display aspect ratio             : 1.850
Frame rate                       : 23.976 fps
Color space                      : YUV
Chroma subsampling               : 4:2:0
Bit depth                        : 8 bits
Scan type                        : Progressive
Bits/(Pixel*Frame)               : 0.194
Stream size                      : 588 MiB (84%)
Writing library                  : XviD 1.1.2 (UTC 2006-11-01)

Audio
ID                               : 1
Format                           : MPEG Audio
Format version                   : Version 1
Format profile                   : Layer 3
Mode                             : Joint stereo
Mode extension                   : MS Stereo
Codec ID                         : 55
Codec ID/Hint                    : MP3
Duration                         : 1h 33mn
Bit rate mode                    : Variable
Bit rate                         : 160 Kbps
Minimum bit rate                 : 160 Kbps
Channel(s)                       : 2 channels
Sampling rate                    : 48.0 KHz
Stream size                      : 106 MiB (15%)
Alignment                        : Aligned on interleaves
Interleave, duration             : 24 ms (0.58 video frame)
Interleave, preload duration     : 150 ms
Writing library                  : LAME3.95 
Encoding settings                : -m j -V 4 -q 3 -lowpass 18 --vbr-old -b 160

credit SPRiNTER & to all the people who made it possible for us to share this...especially EVERYONE involve in the production of the movie...IF YOU LIKE IT...BUY IT :)

BIG BIG BIG GREETZ & THANKS:
ALL members & STAFFS of PIRATEBAY, EXTRATORRENT, KINGDOM, IPTORRENTS, DEMONOID & AHASHARE :)
KaOsUSC, Motley Crue, InFeCtiouS, BADASS, W1ck3d1nt3ntz, ceo54, DaRkReAlM, ghostman, karakurachow, megaplay, Emery1337x, SaM, geordieboy1979, timamirrockdude, Noir, Shedevil, bone111, JorgeMontana, BlueLady, UniversalAbsurdity, mc68, TheFalcon007, pardeep333, X, DR67, DiNGiE, xclusive666, pro2kon, EMUworld, wrath, oziman, rubak1, BigPerm1828, skynetcentral, IZON, bluepeas, Dibya9999, Treezluv2draw, pitic, FASAMOO, W1CK3D1NT3Z, GRIND3R, extremezone, MonsterTV, BLaZE, SAFCuk009, Fabreezy, MXMG, Hellb0y, iwanttobelieveinaj, velvetfog, mustaphanaru & many more :)
ALL the awesome people who are SHARING (ALL THE UPLOADERS, THE RIPPERS, THE SCENE GROUPS, ETC, THE WHOLE P2P COMMUNITY, even the CRITICIZERS )
***wish i could list everyone***Thank you very much everyone & i mean EVERYONE :)

*****help what we can with others in need...the world is ONE big family*****

SCREENSHOTS
 
http://img819.imageshack.us/img819/103/vlcsnap2010092200h43m52.png
 
http://img807.imageshack.us/img807/8817/vlcsnap2010092200h44m14.png
 
http://img529.imageshack.us/img529/243/vlcsnap2010092200h44m21.png

DON'T THANK US...HELP SOMEONE IN NEED :)

MAY YOU & YOUR LOVED ONES ALWAYS BE BLESSED WITH LIGHT, LOVE, JOY, PEACE, GOOD HEALTH & ABUNDANCE :)
 
http://www.imdb.com/title/tt0496673/